<svg version="1.1" id="Layer_1" xmlns="http://www.w3.org/2000/svg" xmlns:xlink="http://www.w3.org/1999/xlink" x="0px" y="0px"
	 width="100%" viewBox="0 0 768 320" enable-background="new 0 0 768 320" xml:space="preserve">
<path fill="#000000" opacity="1.000000" stroke="none" 
	d="
M92.291168,246.361832 
	C69.581612,260.064087 47.533489,274.100983 26.704317,289.974579 
	C24.588526,291.586975 22.373304,293.080902 20.121761,294.498871 
	C18.655491,295.422333 16.864834,296.039276 15.778015,294.121582 
	C14.817492,292.426758 16.266594,291.400391 17.511011,290.493896 
	C33.402657,278.917633 48.613853,266.470062 63.946266,254.179535 
	C96.436531,228.135254 127.871155,200.836792 159.489273,173.754486 
	C177.207306,158.578201 194.650787,143.093521 211.195679,126.658195 
	C225.013245,112.932159 237.756744,98.145821 251.857620,84.680893 
	C253.412201,83.196434 255.010910,81.758202 256.336548,79.835136 
	C242.760056,87.031609 229.117432,94.106514 215.620636,101.449455 
	C186.079102,117.521538 156.588852,133.689194 128.369049,152.045883 
	C121.951271,156.220596 115.722733,160.723572 108.655380,163.811508 
	C106.881393,164.586624 104.866859,166.192230 103.283600,163.993652 
	C101.815445,161.954941 103.541336,160.165131 104.830658,158.704834 
	C113.558762,148.819214 123.331238,140.020050 133.225754,131.328506 
	C152.363113,114.517853 171.371063,97.559868 190.421448,80.650307 
	C191.268860,79.898140 192.005524,79.021217 192.502914,77.812729 
	C177.374603,86.076157 162.136719,94.146217 147.140366,102.642548 
	C114.079582,121.373466 82.013168,141.681396 51.251740,164.016342 
	C46.939842,167.147095 42.639370,170.293869 38.305347,173.393692 
	C36.930862,174.376770 35.454170,174.580307 34.399826,172.970825 
	C33.392517,171.433167 33.887169,169.869583 35.393288,169.133514 
	C46.694805,163.610199 55.976273,155.119278 66.246635,148.097763 
	C98.734535,125.886856 132.279556,105.469788 166.948929,86.865570 
	C188.087463,75.522240 208.981705,63.761868 228.459030,49.657669 
	C230.328308,48.304062 232.473999,47.309498 234.557907,46.283394 
	C235.837540,45.653309 237.224426,45.624851 238.064346,47.065571 
	C238.867905,48.443874 238.302292,49.664906 237.227097,50.628658 
	C236.240051,51.513390 235.261963,52.505650 234.097198,53.079906 
	C216.634888,61.689198 203.050049,75.302834 188.754608,88.018356 
	C172.833694,102.179695 156.763947,116.173752 140.851196,130.344208 
	C131.540588,138.635376 121.923943,146.605194 113.665756,156.169983 
	C123.390511,150.068817 133.085037,143.918823 142.845871,137.875931 
	C168.913330,121.737694 195.950500,107.316360 222.884491,92.709785 
	C240.153702,83.344505 257.859283,74.779076 274.641876,64.520134 
	C275.352203,64.085907 276.071106,63.655010 276.823547,63.302696 
	C278.191254,62.662300 279.779938,61.850613 280.817810,63.526772 
	C281.819672,65.144798 280.569641,66.338699 279.349030,67.293365 
	C275.154724,70.573921 270.799072,73.663406 266.756439,77.119896 
	C251.534714,90.134583 237.976959,104.834007 224.227478,119.343803 
	C204.955750,139.681259 184.074036,158.308960 162.851395,176.558014 
	C143.035828,193.597137 123.191483,210.603546 103.264496,227.512054 
	C94.019569,235.356598 84.548454,242.934601 75.612335,251.290939 
	C83.896965,246.335693 92.244255,241.481857 100.455627,236.408066 
	C141.529510,211.028610 184.653442,189.740234 229.876328,172.931183 
	C241.077255,168.767868 248.380157,161.282654 255.493988,152.631821 
	C268.097229,137.305557 282.017548,123.181488 295.898285,109.016975 
	C311.288544,93.312080 327.024384,77.974777 343.147491,63.029415 
	C343.991821,62.246754 344.864471,61.437866 345.861816,60.894001 
	C346.750427,60.409428 347.873993,60.421947 348.643066,61.242985 
	C349.424683,62.077435 349.331848,63.166466 348.679382,63.992661 
	C347.135529,65.947609 345.758514,68.194160 343.809235,69.644333 
	C324.454865,84.043175 308.879211,102.404793 291.828156,119.198631 
	C278.071899,132.747406 265.264709,147.224380 252.688416,162.580170 
	C255.724350,163.129303 257.855103,161.373901 260.237579,160.855026 
	C272.202698,158.249100 280.618805,150.648895 288.789795,142.044327 
	C302.208466,127.913628 316.438354,114.557198 330.133026,100.683617 
	C346.609009,83.992416 363.714264,67.819160 375.938263,47.452499 
	C377.138336,45.453049 378.584564,43.536766 380.621887,42.325623 
	C382.309418,41.322403 384.224487,40.183891 386.064789,42.084698 
	C387.659454,43.731796 387.054108,45.644352 385.986450,47.138447 
	C383.376984,50.790100 380.949951,54.721859 377.707977,57.745819 
	C363.836212,70.684608 354.254242,87.100807 341.910370,101.275887 
	C330.554413,114.316544 319.757294,127.844009 308.730896,141.171021 
	C308.339691,141.643860 308.129181,142.266220 307.071320,144.250015 
	C315.138489,141.211075 322.653717,140.858643 328.561188,135.646622 
	C332.928619,131.793381 337.541138,128.211365 342.139465,124.630470 
	C343.494629,123.575142 345.179596,121.896172 346.954315,123.668221 
	C348.595245,125.306648 347.261566,127.081253 346.363922,128.658722 
	C345.722595,129.785782 344.977509,130.853790 343.570404,133.057419 
	C356.964264,129.218781 369.933441,127.810112 379.100403,117.068817 
	C383.186310,112.281197 388.142517,108.225822 392.804932,103.948425 
	C393.914215,102.930763 395.366028,101.112923 397.013489,102.974098 
	C398.507904,104.662308 396.988647,106.045578 395.808075,107.224915 
	C391.103912,111.924393 386.372040,116.596107 381.272705,121.652664 
	C386.272430,121.739769 389.614716,119.751755 392.542694,116.587181 
	C394.801361,114.146011 397.302368,111.923645 399.759949,109.674263 
	C400.943146,108.591286 402.265503,106.931625 403.969452,108.676796 
	C405.575317,110.321442 404.194214,111.708580 403.060333,112.969147 
	C402.189972,113.936691 401.304291,114.890434 399.599121,116.752800 
	C406.194427,115.644547 410.943909,114.484047 414.988403,109.549965 
	C427.544647,94.232155 440.738129,79.436867 453.674927,64.430687 
	C455.076447,62.804966 456.416321,61.126110 457.363129,58.633289 
	C448.279022,61.841862 439.229523,65.153046 430.101379,68.231102 
	C420.327026,71.527061 410.490967,74.642479 400.652557,77.743889 
	C398.602081,78.390282 396.431488,78.677284 394.301147,79.041420 
	C392.879425,79.284447 391.437653,78.992126 391.083466,77.424698 
	C390.696991,75.714279 392.142212,75.068748 393.471497,74.836105 
	C408.159546,72.265434 421.820465,66.398018 435.822601,61.644104 
	C444.962402,58.541023 453.982635,55.087326 463.096405,51.905060 
	C465.230255,51.159981 466.992767,49.987759 468.464050,48.392784 
	C478.287170,37.743870 489.986053,28.989931 499.309326,17.837309 
	C499.838470,17.204348 500.457916,16.615545 501.130920,16.142015 
	C502.005096,15.526891 503.025970,15.428282 503.932648,16.066416 
	C505.210754,16.965923 504.856201,18.242601 504.152405,19.158588 
	C502.432404,21.397142 500.714081,23.697922 498.650696,25.600094 
	C492.633118,31.147465 487.586975,37.529980 481.899017,44.216805 
	C485.109772,44.361580 487.264404,42.901070 489.616882,42.069759 
	C513.136841,33.758289 536.286621,24.351820 560.479736,18.024796 
	C560.962891,17.898436 561.435303,17.715513 561.925110,17.632250 
	C563.905945,17.295532 566.701721,15.364335 567.522705,18.298571 
	C568.354919,21.273043 565.021851,21.153633 563.092712,21.670965 
	C533.616272,29.575562 505.415802,41.167042 476.775940,51.488579 
	C472.189606,53.141460 470.089752,57.454891 467.228851,60.774414 
	C454.742950,75.262032 442.404694,89.887527 431.086761,105.329094 
	C430.538696,106.076889 429.639923,106.774467 430.344452,108.751144 
	C444.962341,102.957497 461.748779,103.589104 474.543579,92.310112 
	C479.656586,87.802841 485.878754,84.692101 492.157135,81.957581 
	C499.688507,78.677322 502.605103,80.563156 502.811462,88.762566 
	C506.024933,89.145912 508.995361,87.864174 512.001221,87.180244 
	C565.824463,74.933571 619.628967,62.604317 673.440247,50.304893 
	C675.706177,49.786980 677.987000,49.308899 680.283020,48.956303 
	C682.036011,48.687107 684.343079,48.021366 684.887695,50.440437 
	C685.355042,52.516304 683.226807,52.955967 681.650696,53.501820 
	C674.105408,56.114937 666.399658,58.350590 659.057190,61.446575 
	C642.052979,68.616539 624.672668,75.095192 609.479431,85.944618 
	C607.491272,87.364334 605.190002,88.482956 603.750488,91.228546 
	C609.621765,92.729408 615.068420,91.263237 620.483337,90.199516 
	C633.685242,87.606110 646.841309,84.770180 660.180725,82.936356 
	C661.660461,82.732933 663.170166,82.693085 664.666931,82.679398 
	C667.823792,82.650520 671.401611,82.166016 672.932251,85.786308 
	C674.445862,89.366333 672.366089,92.366127 669.968079,94.733276 
	C661.280457,103.309067 651.311157,110.288773 641.309509,117.209534 
	C640.027161,118.096832 638.692444,118.908272 637.549133,120.027466 
	C654.290710,112.228432 670.693970,103.805687 687.533752,96.280998 
	C703.207642,89.277313 719.449097,83.792679 735.519836,77.847694 
	C737.084229,77.268982 739.349670,75.903236 740.241577,78.451767 
	C741.098450,80.900368 738.577026,81.443375 736.976685,81.992897 
	C722.342529,87.017914 707.730225,92.097755 693.566040,98.361519 
	C663.540588,111.639496 634.492554,126.848473 605.737000,142.655746 
	C581.228882,156.128113 556.599487,169.380905 531.946838,182.587418 
	C529.395081,183.954407 525.629272,187.169876 523.571350,183.819473 
	C521.163269,179.898849 526.073425,178.209763 528.642761,176.764740 
	C543.878296,168.196014 559.305176,159.968445 574.622925,151.544739 
	C605.133667,134.765915 635.816040,118.250435 662.638733,95.660027 
	C665.168762,93.529228 667.940186,91.591919 668.825317,87.528381 
	C662.431946,86.161354 656.271912,87.718811 650.212891,88.733063 
	C637.437805,90.871536 624.754211,93.550926 612.001892,95.834213 
	C609.082458,96.356918 606.037720,96.253021 603.048889,96.289978 
	C600.969666,96.315697 598.955872,95.750847 598.052673,93.657715 
	C597.115112,91.485123 598.397034,89.746384 599.829346,88.314461 
	C605.547791,82.597885 612.433838,78.511787 619.453003,74.668945 
	C629.495178,69.171021 639.987915,64.607124 650.428101,59.841934 
	C622.828918,66.156189 595.334167,72.986855 567.593018,78.599495 
	C549.696228,82.220413 533.197021,88.487663 517.785767,98.130684 
	C512.444336,101.472908 506.751434,104.348518 500.679688,106.272362 
	C498.169067,107.067848 495.501221,108.299721 493.247681,105.798256 
	C491.174225,103.496712 492.407959,101.140694 493.397644,98.814018 
	C493.642853,98.237503 493.615417,97.545044 493.788513,96.414856 
	C478.052551,99.388817 463.430145,103.362694 451.999756,115.528931 
	C444.619446,123.384323 436.432098,130.577194 427.865540,137.237076 
	C425.225555,139.289505 422.546326,141.288559 419.443695,142.561050 
	C416.837830,143.629776 414.086121,144.882355 411.508575,142.510178 
	C409.082062,140.276962 409.201233,137.313080 410.076782,134.600204 
	C411.298889,130.813385 412.998505,127.176949 414.565460,123.506760 
	C415.337952,121.697365 416.271362,119.956680 417.251556,117.938675 
	C414.468506,116.817513 413.262238,118.503166 411.928375,119.883827 
	C402.090027,130.067581 392.265839,140.265121 382.398529,150.420731 
	C378.771332,154.153946 374.648804,157.235703 369.840363,159.321899 
	C367.813232,160.201416 365.697235,161.056259 363.791840,159.228851 
	C361.723846,157.245499 363.202637,155.121490 364.025482,153.241516 
	C364.948334,151.133087 366.295380,149.210342 367.553223,147.042419 
	C365.373199,146.650711 362.254333,148.841019 361.353180,145.259903 
	C360.759460,142.900497 362.289520,140.801697 363.680115,137.662735 
	C355.127045,145.670837 347.414276,153.039810 339.528442,160.218689 
	C334.985901,164.353989 330.653839,168.815262 325.119598,171.703964 
	C322.406464,173.120117 319.409027,174.427155 316.835663,171.706848 
	C314.429443,169.163269 315.995758,166.384140 317.193695,163.825058 
	C319.678528,158.517059 323.068726,153.771561 326.472931,149.029953 
	C328.078186,146.794022 329.963806,144.684265 330.941071,141.444656 
	C326.012146,142.526840 323.194580,145.942551 320.186646,148.808136 
	C309.451141,159.035721 298.955414,169.507843 289.121368,180.626572 
	C286.256226,183.866013 283.262482,187.048615 279.564392,189.382721 
	C277.673859,190.575928 275.649506,192.743958 273.283600,190.931610 
	C270.813080,189.039169 272.572601,186.633469 273.444214,184.573563 
	C278.154999,173.440552 285.525787,163.971420 292.408875,154.296539 
	C284.934387,155.242905 278.792969,158.639923 273.558441,163.921463 
	C254.438522,183.213181 236.612457,203.679367 218.595840,223.976395 
	C215.823776,227.099319 212.512573,229.668015 208.963058,231.874466 
	C207.269836,232.927048 205.477081,233.949036 203.394882,232.614532 
	C201.305420,231.275345 201.562592,229.159027 201.721191,227.215897 
	C202.100754,222.565338 204.660583,218.786453 207.067276,215.008041 
	C215.829681,201.251495 225.953232,188.491486 236.018127,175.690826 
	C221.866272,177.175919 141.158447,216.827225 92.291168,246.361832 
M209.585510,219.043961 
	C208.239532,221.870911 205.902679,224.363113 206.284409,229.508820 
	C228.878433,208.089218 246.688950,184.116364 267.747284,163.109467 
	C261.320984,164.957092 255.325256,167.336670 249.262589,169.531281 
	C246.493729,170.533585 244.283966,172.171051 242.505676,174.420624 
	C231.187271,188.738815 219.659485,202.903702 209.585510,219.043961 
M422.077637,118.550682 
	C419.204834,123.423721 416.582855,128.436539 414.685791,133.762711 
	C414.130646,135.321304 412.557281,137.300003 414.235199,138.852295 
	C416.189911,140.660736 418.011841,138.769043 419.555481,137.743881 
	C432.947784,128.849884 443.594757,116.787155 455.771057,106.418671 
	C446.799469,108.543152 438.015747,110.951820 429.231598,113.359146 
	C426.455750,114.119888 423.854401,115.140785 422.077637,118.550682 
M333.004059,147.456573 
	C328.474457,154.028671 322.962921,160.031754 321.097778,168.346130 
	C336.722534,158.899231 348.571411,145.263428 361.631897,132.929092 
	C351.621796,136.472107 339.255219,135.084641 333.004059,147.456573 
M288.207977,167.639252 
	C284.741058,172.698151 281.247894,177.742493 279.172272,183.622284 
	C292.443329,171.844482 303.206604,157.727524 317.457336,145.484009 
	C313.577454,146.683762 310.853180,147.410950 308.214508,148.372925 
	C305.287201,149.440109 301.871735,149.662308 299.789246,152.374069 
	C296.045532,157.249023 291.762299,161.718201 288.207977,167.639252 
M368.934845,153.905487 
	C369.033936,154.161118 369.108704,154.431870 369.251099,154.660492 
	C369.282288,154.710571 369.572906,154.646423 369.712982,154.574432 
	C376.796692,150.933701 381.977325,144.995422 387.495117,139.532364 
	C393.476654,133.610138 399.071869,127.297661 404.835541,121.155373 
	C400.234375,122.139175 395.256866,121.476288 392.243683,124.891037 
	C384.142517,134.071793 375.376465,142.742126 368.934845,153.905487 
M292.179871,144.660294 
	C290.039093,146.214432 287.898285,147.768555 285.757507,149.322693 
	C286.208954,149.789642 286.660400,150.256592 287.111847,150.723541 
	C293.799774,149.589005 299.343292,146.930832 303.556610,141.035858 
	C308.364807,134.308563 314.070923,128.225952 319.337097,121.822273 
	C324.583984,115.442024 329.769196,109.011078 334.981445,102.602364 
	C334.787109,102.429176 334.592804,102.255997 334.398468,102.082817 
	C320.483643,116.102852 306.568817,130.122894 292.179871,144.660294 
M520.642517,89.619392 
	C514.977417,90.897774 509.309753,92.164917 503.648010,93.458023 
	C498.912659,94.539543 497.758759,97.914345 497.669128,102.796814 
	C508.128204,99.704811 516.268433,93.419060 525.115784,88.446983 
	C523.864990,88.775688 522.614136,89.104385 520.642517,89.619392 
M495.546417,85.372536 
	C489.387268,87.827927 483.701721,91.104347 478.442780,95.215508 
	C483.985229,94.134575 489.405548,92.762444 494.808319,91.324265 
	C496.796539,90.795021 497.724915,89.263359 498.156097,87.353622 
	C498.526886,85.711502 497.641113,85.271278 495.546417,85.372536 
M373.145294,135.598328 
	C375.670807,133.307678 378.511383,131.286789 380.533691,126.930817 
	C373.108429,129.535721 371.408966,135.768723 368.278442,140.683334 
	C369.732910,139.149384 371.187378,137.615448 373.145294,135.598328 
M422.800171,107.116364 
	C421.894135,108.358910 420.095428,109.047638 420.363129,111.819496 
	C424.165100,108.247597 426.248993,104.126984 429.933319,99.579338 
	C426.318359,101.898811 425.230652,104.646362 422.800171,107.116364 
z"/>
<path fill="#000000" opacity="1.000000" stroke="none" 
	d="
M515.209351,51.125504 
	C515.863037,52.595585 516.793701,53.998627 515.094482,54.833950 
	C512.914795,55.905457 511.300781,54.423389 509.925598,52.910732 
	C508.520996,51.365639 508.192596,49.541340 509.710999,47.983463 
	C512.162292,45.468430 515.367554,45.185112 518.519409,46.079060 
	C520.401306,46.612804 520.672852,48.176929 518.877563,49.350033 
	C517.803284,50.051994 516.461365,50.344444 515.209351,51.125504 
z"/>
</svg>